<svg xmlns="http://www.w3.org/2000/svg" width="176" height="126" viewBox="0 0 176 126" fill="none"><path d="M138 125.5C117.297 125.5 100.5 108.703 100.5 88L100.5 50.5C100.5 22.7656 123.156 0.500008 150.5 0.500008C157.531 0.500008 163 5.96876 163 13C163 19.6406 157.531 25.5 150.5 25.5C136.828 25.5 125.5 36.4375 125.5 50.5V52.4531C129.797 51.2813 133.703 50.5 138 50.5C159.094 50.5 175.5 66.9063 175.5 88C175.5 108.703 159.094 125.5 138 125.5ZM0.500002 88L0.500002 50.5C0.500002 22.7656 23.1563 0.500008 50.5 0.500008C57.5312 0.500008 63 5.96876 63 13C63 19.6406 57.5312 25.5 50.5 25.5C36.8281 25.5 25.5 36.4375 25.5 50.5V52.4531C29.7969 51.2813 33.7031 50.5 38 50.5C59.0937 50.5 75.5 66.9063 75.5 88C75.5 108.703 59.0937 125.5 38 125.5C17.2969 125.5 0.500002 108.703 0.500002 88Z" fill="#BFC2C4" fill-opacity="0.15"></path></svg>